<svg xmlns="http://www.w3.org/2000/svg">
  <svg id="home" width="24" height="24" viewBox="0 0 24 24" fill="none"
    xmlns="http://www.w3.org/2000/svg">
    <path d="M20.5603 10.1887L13.0603 2.68875C12.779 2.40766 12.3977 2.24976 12 2.24976C11.6024 2.24976 11.221 2.40766 10.9397 2.68875L3.4397 10.1887C3.29973 10.3277 3.18878 10.493 3.1133 10.6752C3.03782 10.8574 2.99931 11.0528 3.00001 11.25V20.25C3.00001 20.4489 3.07903 20.6397 3.21968 20.7803C3.36033 20.921 3.5511 21 3.75001 21H9.75001C9.94892 21 10.1397 20.921 10.2803 20.7803C10.421 20.6397 10.5 20.4489 10.5 20.25V15H13.5V20.25C13.5 20.4489 13.579 20.6397 13.7197 20.7803C13.8603 20.921 14.0511 21 14.25 21H20.25C20.4489 21 20.6397 20.921 20.7803 20.7803C20.921 20.6397 21 20.4489 21 20.25V11.25C21.0007 11.0528 20.9622 10.8574 20.8867 10.6752C20.8112 10.493 20.7003 10.3277 20.5603 10.1887ZM19.5 19.5H15V14.25C15 14.0511 14.921 13.8603 14.7803 13.7197C14.6397 13.579 14.4489 13.5 14.25 13.5H9.75001C9.5511 13.5 9.36033 13.579 9.21968 13.7197C9.07903 13.8603 9.00001 14.0511 9.00001 14.25V19.5H4.50001V11.25L12 3.75L19.5 11.25V19.5Z" fill="currentColor"/>
  </svg>
  <svg id="orders" width="24" height="24" viewBox="0 0 24 24" fill="none"
    xmlns="http://www.w3.org/2000/svg">
    <path d="M20.25 3.75H3.75C3.35218 3.75 2.97064 3.90804 2.68934 4.18934C2.40804 4.47064 2.25 4.85218 2.25 5.25V18.75C2.25 19.1478 2.40804 19.5294 2.68934 19.8107C2.97064 20.092 3.35218 20.25 3.75 20.25H20.25C20.6478 20.25 21.0294 20.092 21.3107 19.8107C21.592 19.5294 21.75 19.1478 21.75 18.75V5.25C21.75 4.85218 21.592 4.47064 21.3107 4.18934C21.0294 3.90804 20.6478 3.75 20.25 3.75ZM20.25 5.25V6.75H3.75V5.25H20.25ZM20.25 18.75H3.75V8.25H20.25V18.75ZM16.5 10.5C16.5 11.6935 16.0259 12.8381 15.182 13.682C14.3381 14.5259 13.1935 15 12 15C10.8065 15 9.66193 14.5259 8.81802 13.682C7.97411 12.8381 7.5 11.6935 7.5 10.5C7.5 10.3011 7.57902 10.1103 7.71967 9.96967C7.86032 9.82902 8.05109 9.75 8.25 9.75C8.44891 9.75 8.63968 9.82902 8.78033 9.96967C8.92098 10.1103 9 10.3011 9 10.5C9 11.2956 9.31607 12.0587 9.87868 12.6213C10.4413 13.1839 11.2044 13.5 12 13.5C12.7956 13.5 13.5587 13.1839 14.1213 12.6213C14.6839 12.0587 15 11.2956 15 10.5C15 10.3011 15.079 10.1103 15.2197 9.96967C15.3603 9.82902 15.5511 9.75 15.75 9.75C15.9489 9.75 16.1397 9.82902 16.2803 9.96967C16.421 10.1103 16.5 10.3011 16.5 10.5Z" fill="currentColor"/>
  </svg>
  <svg id="sales" width="24" height="24" viewBox="0 0 24 24" fill="none"
    xmlns="http://www.w3.org/2000/svg">
    <path d="M22.8975 5.62499C22.7895 5.55761 22.6662 5.51881 22.5391 5.51225C22.412 5.50569 22.2853 5.53158 22.1709 5.58749C18.1462 7.55624 15.2719 6.63374 12.2334 5.66062C9.04594 4.63968 5.74125 3.58499 1.17563 5.81437C1.04806 5.87556 0.940404 5.97159 0.865091 6.09136C0.789777 6.21113 0.749878 6.34976 0.75 6.49124V17.7347C0.749982 17.8619 0.782343 17.9871 0.844035 18.0984C0.905728 18.2097 0.994725 18.3035 1.10265 18.3709C1.21058 18.4383 1.33388 18.4771 1.46096 18.4838C1.58804 18.4904 1.71471 18.4646 1.82906 18.4087C5.85375 16.44 8.72812 17.3625 11.7712 18.3356C13.575 18.9122 15.4125 19.5 17.49 19.5C19.0922 19.5 20.8397 19.1512 22.8253 18.1819C22.9514 18.1203 23.0577 18.0246 23.1322 17.9056C23.2066 17.7866 23.2461 17.6491 23.2463 17.5087V6.26531C23.2474 6.13772 23.2159 6.01196 23.1549 5.89992C23.0939 5.78787 23.0053 5.69325 22.8975 5.62499ZM21.75 17.0316C17.9438 18.735 15.1641 17.8462 12.2288 16.9078C10.425 16.3312 8.5875 15.7434 6.51 15.7434C5.05041 15.7505 3.60567 16.0369 2.25375 16.5872V6.96843C6.06 5.26499 8.83969 6.15374 11.775 7.09218C14.7103 8.03062 17.7319 8.99999 21.75 7.41468V17.0316ZM12 8.99999C11.4067 8.99999 10.8266 9.17594 10.3333 9.50559C9.83994 9.83523 9.45542 10.3038 9.22836 10.8519C9.0013 11.4001 8.94189 12.0033 9.05764 12.5853C9.1734 13.1672 9.45912 13.7018 9.87868 14.1213C10.2982 14.5409 10.8328 14.8266 11.4147 14.9424C11.9967 15.0581 12.5999 14.9987 13.1481 14.7716C13.6962 14.5446 14.1648 14.1601 14.4944 13.6667C14.8241 13.1734 15 12.5933 15 12C15 11.2043 14.6839 10.4413 14.1213 9.87867C13.5587 9.31606 12.7956 8.99999 12 8.99999ZM12 13.5C11.7033 13.5 11.4133 13.412 11.1666 13.2472C10.92 13.0824 10.7277 12.8481 10.6142 12.574C10.5006 12.2999 10.4709 11.9983 10.5288 11.7074C10.5867 11.4164 10.7296 11.1491 10.9393 10.9393C11.1491 10.7296 11.4164 10.5867 11.7074 10.5288C11.9983 10.4709 12.2999 10.5006 12.574 10.6142C12.8481 10.7277 13.0824 10.92 13.2472 11.1666C13.412 11.4133 13.5 11.7033 13.5 12C13.5 12.3978 13.342 12.7793 13.0607 13.0607C12.7794 13.342 12.3978 13.5 12 13.5ZM5.25 8.99999V13.5C5.25 13.6989 5.17098 13.8897 5.03033 14.0303C4.88968 14.171 4.69891 14.25 4.5 14.25C4.30109 14.25 4.11032 14.171 3.96967 14.0303C3.82902 13.8897 3.75 13.6989 3.75 13.5V8.99999C3.75 8.80108 3.82902 8.61032 3.96967 8.46966C4.11032 8.32901 4.30109 8.24999 4.5 8.24999C4.69891 8.24999 4.88968 8.32901 5.03033 8.46966C5.17098 8.61032 5.25 8.80108 5.25 8.99999ZM18.75 15V10.5C18.75 10.3011 18.829 10.1103 18.9697 9.96966C19.1103 9.82901 19.3011 9.74999 19.5 9.74999C19.6989 9.74999 19.8897 9.82901 20.0303 9.96966C20.171 10.1103 20.25 10.3011 20.25 10.5V15C20.25 15.1989 20.171 15.3897 20.0303 15.5303C19.8897 15.671 19.6989 15.75 19.5 15.75C19.3011 15.75 19.1103 15.671 18.9697 15.5303C18.829 15.3897 18.75 15.1989 18.75 15Z" fill="currentColor"/>
  </svg>
  <svg id="inventory" width="24" height="24" viewBox="0 0 24 24" fill="none"
    xmlns="http://www.w3.org/2000/svg">
    <path d="M17.25 3.75H6.75C5.35807 3.75149 4.02358 4.30509 3.03933 5.28933C2.05509 6.27358 1.50149 7.60807 1.5 9V18C1.5 18.3978 1.65804 18.7794 1.93934 19.0607C2.22064 19.342 2.60218 19.5 3 19.5H21C21.3978 19.5 21.7794 19.342 22.0607 19.0607C22.342 18.7794 22.5 18.3978 22.5 18V9C22.4985 7.60807 21.9449 6.27358 20.9607 5.28933C19.9764 4.30509 18.6419 3.75149 17.25 3.75ZM21 9V9.75H18V5.325C18.8465 5.49904 19.607 5.95959 20.1535 6.62903C20.7 7.29846 20.9989 8.13584 21 9ZM12.75 12.75H11.25V9.75H12.75V12.75ZM10.5 14.25H13.5C13.6989 14.25 13.8897 14.171 14.0303 14.0303C14.171 13.8897 14.25 13.6989 14.25 13.5V11.25H16.5V18H7.5V11.25H9.75V13.5C9.75 13.6989 9.82902 13.8897 9.96967 14.0303C10.1103 14.171 10.3011 14.25 10.5 14.25ZM14.25 9.75V9C14.25 8.80109 14.171 8.61032 14.0303 8.46967C13.8897 8.32902 13.6989 8.25 13.5 8.25H10.5C10.3011 8.25 10.1103 8.32902 9.96967 8.46967C9.82902 8.61032 9.75 8.80109 9.75 9V9.75H7.5V5.25H16.5V9.75H14.25ZM6 5.325V9.75H3V9C3.00106 8.13584 3.30002 7.29846 3.8465 6.62903C4.39297 5.95959 5.15354 5.49904 6 5.325ZM3 11.25H6V18H3V11.25ZM21 18H18V11.25H21V18Z" fill="currentColor"/>
  </svg>
  <svg id="settings" width="24" height="24" viewBox="0 0 24 24" fill="none"
    xmlns="http://www.w3.org/2000/svg">
    <path d="M12 7.5C11.11 7.5 10.24 7.76392 9.49993 8.25838C8.75991 8.75285 8.18313 9.45565 7.84254 10.2779C7.50194 11.1002 7.41283 12.005 7.58646 12.8779C7.7601 13.7508 8.18868 14.5526 8.81801 15.182C9.44735 15.8113 10.2492 16.2399 11.1221 16.4135C11.995 16.5872 12.8998 16.4981 13.7221 16.1575C14.5443 15.8169 15.2471 15.2401 15.7416 14.5001C16.2361 13.76 16.5 12.89 16.5 12C16.4988 10.8069 16.0243 9.66303 15.1806 8.81939C14.337 7.97574 13.1931 7.50124 12 7.5ZM12 15C11.4067 15 10.8266 14.8241 10.3333 14.4944C9.83994 14.1648 9.45542 13.6962 9.22836 13.148C9.00129 12.5999 8.94188 11.9967 9.05764 11.4147C9.17339 10.8328 9.45912 10.2982 9.87867 9.87868C10.2982 9.45912 10.8328 9.1734 11.4147 9.05764C11.9967 8.94189 12.5999 9.0013 13.148 9.22836C13.6962 9.45542 14.1648 9.83994 14.4944 10.3333C14.824 10.8266 15 11.4067 15 12C15 12.7956 14.6839 13.5587 14.1213 14.1213C13.5587 14.6839 12.7956 15 12 15ZM22.3069 10.0509C22.286 9.94532 22.2426 9.84544 22.1797 9.75809C22.1167 9.67073 22.0357 9.59795 21.9422 9.54468L19.1456 7.95093L19.1344 4.79906C19.134 4.69051 19.1101 4.58333 19.0643 4.48492C19.0185 4.38651 18.9519 4.29921 18.8691 4.22906C17.8546 3.37096 16.6864 2.71337 15.4266 2.29125C15.3273 2.25767 15.2222 2.24524 15.1179 2.25477C15.0136 2.26429 14.9124 2.29556 14.8209 2.34656L12 3.92343L9.17624 2.34375C9.0847 2.29246 8.98341 2.26096 8.87893 2.25127C8.77445 2.24158 8.6691 2.25392 8.56968 2.2875C7.31076 2.71271 6.14389 3.37281 5.13093 4.23281C5.04822 4.30286 4.98166 4.39 4.93586 4.48824C4.89006 4.58648 4.8661 4.69348 4.86562 4.80187L4.85156 7.95656L2.055 9.55031C1.96143 9.60357 1.88044 9.67636 1.81751 9.76371C1.75458 9.85107 1.7112 9.95095 1.69031 10.0566C1.43437 11.3427 1.43437 12.6667 1.69031 13.9528C1.7112 14.0584 1.75458 14.1583 1.81751 14.2457C1.88044 14.333 1.96143 14.4058 2.055 14.4591L4.85156 16.0528L4.86281 19.2047C4.86315 19.3132 4.88705 19.4204 4.93285 19.5188C4.97866 19.6172 5.04528 19.7045 5.12812 19.7747C6.14256 20.6328 7.31077 21.2904 8.57062 21.7125C8.66983 21.7461 8.77498 21.7585 8.87929 21.749C8.9836 21.7395 9.08476 21.7082 9.17624 21.6572L12 20.0766L14.8237 21.6562C14.9355 21.7185 15.0615 21.7508 15.1894 21.75C15.2713 21.75 15.3526 21.7367 15.4303 21.7106C16.6891 21.286 17.8559 20.6265 18.8691 19.7672C18.9518 19.6971 19.0183 19.61 19.0641 19.5118C19.1099 19.4135 19.1339 19.3065 19.1344 19.1981L19.1484 16.0434L21.945 14.4497C22.0386 14.3964 22.1196 14.3236 22.1825 14.2363C22.2454 14.1489 22.2888 14.049 22.3097 13.9434C22.5642 12.6583 22.5632 11.3357 22.3069 10.0509ZM20.9006 13.3237L18.2222 14.8472C18.1048 14.9139 18.0077 15.0111 17.9409 15.1284C17.8866 15.2222 17.8294 15.3216 17.7712 15.4153C17.6968 15.5335 17.6572 15.6703 17.6569 15.81L17.6428 18.8334C16.9229 19.3988 16.1208 19.8509 15.2644 20.1741L12.5625 18.6684C12.4503 18.6064 12.3241 18.5741 12.1959 18.5747H12.1781C12.0647 18.5747 11.9503 18.5747 11.8369 18.5747C11.7027 18.5713 11.5701 18.6037 11.4525 18.6684L8.74874 20.1778C7.89047 19.8571 7.0862 19.4072 6.36375 18.8437L6.35343 15.825C6.35297 15.685 6.31335 15.548 6.23906 15.4294C6.18093 15.3356 6.12375 15.2419 6.07031 15.1425C6.00405 15.0233 5.90689 14.9242 5.78906 14.8556L3.10781 13.3284C2.96906 12.4508 2.96906 11.5567 3.10781 10.6791L5.78156 9.15281C5.89891 9.08608 5.99608 8.98891 6.06281 8.87156C6.11718 8.77781 6.17437 8.67844 6.2325 8.58469C6.3069 8.46646 6.34653 8.32969 6.34687 8.19L6.36093 5.16656C7.08087 4.6012 7.88293 4.14911 8.73937 3.82593L11.4375 5.33156C11.5549 5.39665 11.6877 5.42903 11.8219 5.42531C11.9353 5.42531 12.0497 5.42531 12.1631 5.42531C12.2973 5.42866 12.4299 5.39631 12.5475 5.33156L15.2512 3.82218C16.1095 4.14288 16.9138 4.59275 17.6362 5.15625L17.6466 8.175C17.647 8.31496 17.6866 8.452 17.7609 8.57062C17.8191 8.66437 17.8762 8.75812 17.9297 8.8575C17.9959 8.97667 18.0931 9.07577 18.2109 9.14437L20.8922 10.6716C21.0328 11.5499 21.0344 12.4449 20.8969 13.3237H20.9006Z" fill="currentColor"/>
  </svg>
  <symbol id='show' viewBox="0 0 24 24" fill="none" xmlns="http://www.w3.org/2000/svg">
		<path d="M1 12C1 12 5 4 12 4C19 4 23 12 23 12" stroke="#000000" stroke-width="2" stroke-linecap="round"
			stroke-linejoin="round" />
		<path d="M1 12C1 12 5 20 12 20C19 20 23 12 23 12" stroke="#000000" stroke-width="2" stroke-linecap="round"
			stroke-linejoin="round" />
		<circle cx="12" cy="12" r="3" stroke="#000000" stroke-width="2" stroke-linecap="round"
			stroke-linejoin="round" />
	</symbol>

	<symbol id='hide' viewBox="0 0 24 24" fill="none" xmlns="http://www.w3.org/2000/svg">
		<g id="SVGRepo_bgCarrier" stroke-width="0"></g>
		<g id="SVGRepo_tracerCarrier" stroke-linecap="round" stroke-linejoin="round"></g>
		<g id="SVGRepo_iconCarrier">
			<g id="Edit / Hide">
				<path id="Vector"
					d="M3.99989 4L19.9999 20M16.4999 16.7559C15.1473 17.4845 13.6185 17.9999 11.9999 17.9999C8.46924 17.9999 5.36624 15.5478 3.5868 13.7788C3.1171 13.3119 2.88229 13.0784 2.7328 12.6201C2.62619 12.2933 2.62616 11.7066 2.7328 11.3797C2.88233 10.9215 3.11763 10.6875 3.58827 10.2197C4.48515 9.32821 5.71801 8.26359 7.17219 7.42676M19.4999 14.6335C19.8329 14.3405 20.138 14.0523 20.4117 13.7803L20.4146 13.7772C20.8832 13.3114 21.1182 13.0779 21.2674 12.6206C21.374 12.2938 21.3738 11.7068 21.2672 11.38C21.1178 10.9219 20.8827 10.6877 20.4133 10.2211C18.6338 8.45208 15.5305 6 11.9999 6C11.6624 6 11.3288 6.02241 10.9999 6.06448M13.3228 13.5C12.9702 13.8112 12.5071 14 11.9999 14C10.8953 14 9.99989 13.1046 9.99989 12C9.99989 11.4605 10.2135 10.9711 10.5608 10.6113"
					stroke="#000000" stroke-width="2" stroke-linecap="round" stroke-linejoin="round"></path>
			</g>
		</g>
	</symbol>
  <svg id='bank' width="40" height="40" viewBox="0 0 40 40" fill="none" xmlns="http://www.w3.org/2000/svg">
<path d="M3.75 16.25H7.5V26.25H5C4.66848 26.25 4.35054 26.3817 4.11612 26.6161C3.8817 26.8506 3.75 27.1685 3.75 27.5C3.75 27.8315 3.8817 28.1495 4.11612 28.3839C4.35054 28.6183 4.66848 28.75 5 28.75H35C35.3315 28.75 35.6495 28.6183 35.8839 28.3839C36.1183 28.1495 36.25 27.8315 36.25 27.5C36.25 27.1685 36.1183 26.8506 35.8839 26.6161C35.6495 26.3817 35.3315 26.25 35 26.25H32.5V16.25H36.25C36.522 16.2497 36.7864 16.1608 37.0033 15.9966C37.2201 15.8324 37.3775 15.602 37.4515 15.3403C37.5256 15.0786 37.5122 14.7999 37.4135 14.5465C37.3149 14.293 37.1362 14.0787 36.9047 13.936L20.6547 3.93595C20.4578 3.81489 20.2312 3.75079 20 3.75079C19.7688 3.75079 19.5422 3.81489 19.3453 3.93595L3.09531 13.936C2.86379 14.0787 2.68514 14.293 2.58645 14.5465C2.48777 14.7999 2.47443 15.0786 2.54847 15.3403C2.62251 15.602 2.77989 15.8324 2.99672 15.9966C3.21356 16.1608 3.47802 16.2497 3.75 16.25ZM10 16.25H15V26.25H10V16.25ZM22.5 16.25V26.25H17.5V16.25H22.5ZM30 26.25H25V16.25H30V26.25ZM20 6.4672L31.8344 13.75H8.16562L20 6.4672ZM38.75 32.5C38.75 32.8315 38.6183 33.1495 38.3839 33.3839C38.1495 33.6183 37.8315 33.75 37.5 33.75H2.5C2.16848 33.75 1.85054 33.6183 1.61612 33.3839C1.3817 33.1495 1.25 32.8315 1.25 32.5C1.25 32.1685 1.3817 31.8506 1.61612 31.6161C1.85054 31.3817 2.16848 31.25 2.5 31.25H37.5C37.8315 31.25 38.1495 31.3817 38.3839 31.6161C38.6183 31.8506 38.75 32.1685 38.75 32.5Z" fill="#F45D2C"/>
</svg>
<svg id='camera' xmlns="http://www.w3.org/2000/svg" width="83" height="73" viewBox="0 0 83 73" fill="none">
<path d="M72.75 9.875H61.9219L56.5977 1.89063C56.3124 1.46309 55.9261 1.11251 55.473 0.869944C55.0199 0.627376 54.514 0.500309 54 0.5H29C28.486 0.500309 27.9801 0.627376 27.527 0.869944C27.0739 1.11251 26.6876 1.46309 26.4023 1.89063L21.0742 9.875H10.25C7.7636 9.875 5.37903 10.8627 3.62087 12.6209C1.86272 14.379 0.875 16.7636 0.875 19.25V63C0.875 65.4864 1.86272 67.871 3.62087 69.6291C5.37903 71.3873 7.7636 72.375 10.25 72.375H72.75C75.2364 72.375 77.621 71.3873 79.3791 69.6291C81.1373 67.871 82.125 65.4864 82.125 63V19.25C82.125 16.7636 81.1373 14.379 79.3791 12.6209C77.621 10.8627 75.2364 9.875 72.75 9.875ZM55.5625 39.5625C55.5625 42.3438 54.7378 45.0626 53.1925 47.3752C51.6473 49.6878 49.4511 51.4902 46.8815 52.5546C44.3119 53.6189 41.4844 53.8974 38.7565 53.3548C36.0287 52.8122 33.523 51.4729 31.5563 49.5062C29.5896 47.5395 28.2503 45.0338 27.7077 42.306C27.1651 39.5781 27.4436 36.7506 28.5079 34.181C29.5723 31.6114 31.3747 29.4152 33.6873 27.87C35.9999 26.3248 38.7187 25.5 41.5 25.5C45.2296 25.5 48.8065 26.9816 51.4437 29.6188C54.0809 32.256 55.5625 35.8329 55.5625 39.5625Z" fill="#F45D2C"/>
</svg>

</svg>
