<svg xmlns="http://www.w3.org/2000/svg">
  <symbol id="home" width="24" height="24" viewBox="0 0 24 24" fill="none"
    xmlns="http://www.w3.org/2000/svg">
    <path d="M20.5603 10.1887L13.0603 2.68875C12.779 2.40766 12.3977 2.24976 12 2.24976C11.6024 2.24976 11.221 2.40766 10.9397 2.68875L3.4397 10.1887C3.29973 10.3277 3.18878 10.493 3.1133 10.6752C3.03782 10.8574 2.99931 11.0528 3.00001 11.25V20.25C3.00001 20.4489 3.07903 20.6397 3.21968 20.7803C3.36033 20.921 3.5511 21 3.75001 21H9.75001C9.94892 21 10.1397 20.921 10.2803 20.7803C10.421 20.6397 10.5 20.4489 10.5 20.25V15H13.5V20.25C13.5 20.4489 13.579 20.6397 13.7197 20.7803C13.8603 20.921 14.0511 21 14.25 21H20.25C20.4489 21 20.6397 20.921 20.7803 20.7803C20.921 20.6397 21 20.4489 21 20.25V11.25C21.0007 11.0528 20.9622 10.8574 20.8867 10.6752C20.8112 10.493 20.7003 10.3277 20.5603 10.1887ZM19.5 19.5H15V14.25C15 14.0511 14.921 13.8603 14.7803 13.7197C14.6397 13.579 14.4489 13.5 14.25 13.5H9.75001C9.5511 13.5 9.36033 13.579 9.21968 13.7197C9.07903 13.8603 9.00001 14.0511 9.00001 14.25V19.5H4.50001V11.25L12 3.75L19.5 11.25V19.5Z" fill="currentColor"/>
  </symbol>
  <symbol id="home_" width="24" height="24" viewBox="0 0 18 19" fill="none" xmlns="http://www.w3.org/2000/svg">
   <path d="M18 9.24998V18.25C18 18.4489 17.921 18.6397 17.7803 18.7803C17.6397 18.921 17.4489 19 17.25 19H12C11.8011 19 11.6103 18.921 11.4697 18.7803C11.329 18.6397 11.25 18.4489 11.25 18.25V13.375C11.25 13.2755 11.2105 13.1801 11.1402 13.1098C11.0698 13.0395 10.9745 13 10.875 13H7.125C7.02554 13 6.93016 13.0395 6.85983 13.1098C6.78951 13.1801 6.75 13.2755 6.75 13.375V18.25C6.75 18.4489 6.67098 18.6397 6.53033 18.7803C6.38968 18.921 6.19891 19 6 19H0.75C0.551088 19 0.360322 18.921 0.21967 18.7803C0.0790178 18.6397 0 18.4489 0 18.25V9.24998C0.000184396 8.85222 0.15834 8.47083 0.439687 8.18966L7.93969 0.689664C8.22096 0.408572 8.60235 0.250671 9 0.250671C9.39765 0.250671 9.77904 0.408572 10.0603 0.689664L17.5603 8.18966C17.8417 8.47083 17.9998 8.85222 18 9.24998Z" fill="currentColor"/>
  </symbol>
  <symbol id="search" width="20" height="20" viewBox="0 0 20 20" fill="none" xmlns="http://www.w3.org/2000/svg">
   <path d="M19.5318 18.4694L14.8378 13.7763C16.1983 12.1429 16.8767 10.0478 16.7319 7.92694C16.5871 5.80607 15.6302 3.82268 14.0603 2.38935C12.4904 0.95602 10.4284 0.183113 8.3031 0.231413C6.17785 0.279713 4.15303 1.1455 2.64986 2.64867C1.14669 4.15184 0.280903 6.17666 0.232603 8.30191C0.184304 10.4272 0.95721 12.4892 2.39054 14.0591C3.82387 15.629 5.80726 16.5859 7.92813 16.7307C10.049 16.8755 12.144 16.1971 13.7774 14.8366L18.4706 19.5306C18.5403 19.6003 18.623 19.6556 18.714 19.6933C18.8051 19.731 18.9026 19.7504 19.0012 19.7504C19.0997 19.7504 19.1973 19.731 19.2884 19.6933C19.3794 19.6556 19.4621 19.6003 19.5318 19.5306C19.6015 19.4609 19.6568 19.3782 19.6945 19.2872C19.7322 19.1961 19.7516 19.0985 19.7516 19C19.7516 18.9015 19.7322 18.8039 19.6945 18.7128C19.6568 18.6218 19.6015 18.5391 19.5318 18.4694ZM1.75119 8.5C1.75119 7.16498 2.14707 5.85993 2.88877 4.7499C3.63047 3.63987 4.68468 2.77471 5.91808 2.26381C7.15148 1.75292 8.50868 1.61925 9.81805 1.8797C11.1274 2.14015 12.3302 2.78303 13.2742 3.72703C14.2182 4.67103 14.861 5.87377 15.1215 7.18314C15.3819 8.49251 15.2483 9.84971 14.7374 11.0831C14.2265 12.3165 13.3613 13.3707 12.2513 14.1124C11.1413 14.8541 9.83622 15.25 8.50119 15.25C6.71159 15.248 4.99585 14.5362 3.73041 13.2708C2.46497 12.0053 1.75318 10.2896 1.75119 8.5Z" fill="#7A7978"/>
  </symbol>

  <symbol id="sort" width="24" height="24" viewBox="0 0 24 24" fill="none" xmlns="http://www.w3.org/2000/svg">
    <path d="M10 14H2" stroke="#202020" stroke-width="1.5" stroke-linecap="round" stroke-linejoin="round"/>
    <path d="M8 10H2" stroke="#202020" stroke-width="1.5" stroke-linecap="round" stroke-linejoin="round"/>
    <path d="M6 6H2" stroke="#202020" stroke-width="1.5" stroke-linecap="round" stroke-linejoin="round"/>
    <path d="M12 18H2" stroke="#202020" stroke-width="1.5" stroke-linecap="round" stroke-linejoin="round"/>
    <path d="M19 20V4M19 20L22 17M19 20L16 17M19 4L22 7M19 4L16 7" stroke="#202020" stroke-width="1.5" stroke-linecap="round" stroke-linejoin="round"/>
  </symbol>

  <symbol id="caret-right" viewBox="0 0 7 12" fill="none" xmlns="http://www.w3.org/2000/svg">
    <path d="M1 1.5L5.5 6L1 10.5" stroke="black" stroke-width="1.5" stroke-linecap="round" stroke-linejoin="round"/>
  </symbol>

  <symbol id='eye' width="14" height="7" viewBox="0 0 14 7" fill="none" xmlns="http://www.w3.org/2000/svg">
    <path d="M13.8961 4.37356C13.9471 4.45913 13.9802 4.55357 13.9935 4.65148C14.0067 4.74939 13.9998 4.84886 13.9732 4.94421C13.9466 5.03956 13.9008 5.12892 13.8384 5.20719C13.7761 5.28545 13.6983 5.3511 13.6096 5.40037C13.521 5.44964 13.4231 5.48158 13.3217 5.49436C13.2202 5.50713 13.1171 5.5005 13.0183 5.47483C12.9195 5.44916 12.8269 5.40497 12.7458 5.34477C12.6647 5.28457 12.5967 5.20954 12.5456 5.12397L11.4531 3.27922C10.8434 3.64932 10.1862 3.94071 9.49806 4.14594L9.84085 6.12452C9.87457 6.32079 9.82613 6.52196 9.7062 6.68378C9.58626 6.84561 9.40464 6.95485 9.20127 6.98749C9.15849 6.99476 9.11511 6.99832 9.07167 6.99812C8.88804 6.99794 8.7104 6.93505 8.57021 6.8206C8.43003 6.70614 8.33633 6.5475 8.30573 6.37278L7.97201 4.44673C7.32469 4.51593 6.67143 4.51593 6.02411 4.44673L5.69362 6.37465C5.66298 6.54959 5.5691 6.7084 5.42864 6.82288C5.28819 6.93736 5.11024 7.00011 4.92639 6.99999C4.88294 7.00019 4.83957 6.99663 4.79679 6.98936C4.69607 6.97299 4.59967 6.93764 4.51312 6.88531C4.42656 6.83299 4.35153 6.76472 4.29232 6.68441C4.23311 6.6041 4.19087 6.51331 4.16802 6.41725C4.14517 6.32118 4.14216 6.22171 4.15915 6.12452L4.50194 4.14094C3.81382 3.9357 3.15655 3.64431 2.54692 3.27421L1.45438 5.12397C1.40332 5.20954 1.3353 5.28457 1.25419 5.34477C1.17309 5.40497 1.08049 5.44916 0.981688 5.47483C0.882884 5.5005 0.779809 5.50713 0.678349 5.49436C0.576888 5.48158 0.479028 5.44964 0.390357 5.40037C0.301686 5.3511 0.22394 5.28545 0.161558 5.20719C0.0991752 5.12892 0.0533784 5.03956 0.0267821 4.94421C0.000185695 4.84886 -0.00668947 4.74939 0.00654922 4.65148C0.0197879 4.55357 0.0528812 4.45913 0.103939 4.37356L1.29756 2.36309C0.893005 2.01053 0.51794 1.62767 0.175868 1.21809C0.0551072 1.06266 0.00151443 0.868096 0.0263619 0.675314C0.0512095 0.482533 0.152561 0.306564 0.309098 0.184418C0.465636 0.0622714 0.665159 0.00346844 0.865703 0.0203773C1.06625 0.0372862 1.25218 0.128589 1.3844 0.275081C2.42379 1.51701 4.24209 2.99781 7 2.99781C9.75791 2.99781 11.5762 1.51701 12.6156 0.275081C12.7457 0.121737 12.9333 0.0242719 13.1376 0.0039561C13.3419 -0.0163597 13.5462 0.0421237 13.7059 0.166643C13.8657 0.291162 13.9679 0.471606 13.9903 0.668594C14.0127 0.865583 13.9534 1.06312 13.8254 1.21809C13.4829 1.62772 13.1074 2.01058 12.7024 2.36309L13.8961 4.37356Z" fill="#8F8F8F"/>
  </symbol>

  <symbol id='eye-x'  viewBox="0 0 14 7" fill="none" xmlns="http://www.w3.org/2000/svg">
    <path d="M13.8961 4.37356C13.9471 4.45913 13.9802 4.55357 13.9935 4.65148C14.0067 4.74939 13.9998 4.84886 13.9732 4.94421C13.9466 5.03956 13.9008 5.12892 13.8384 5.20719C13.7761 5.28545 13.6983 5.3511 13.6096 5.40037C13.521 5.44964 13.4231 5.48158 13.3217 5.49436C13.2202 5.50713 13.1171 5.5005 13.0183 5.47483C12.9195 5.44916 12.8269 5.40497 12.7458 5.34477C12.6647 5.28457 12.5967 5.20954 12.5456 5.12397L11.4531 3.27922C10.8434 3.64932 10.1862 3.94071 9.49806 4.14594L9.84085 6.12452C9.87457 6.32079 9.82613 6.52196 9.7062 6.68378C9.58626 6.84561 9.40464 6.95485 9.20127 6.98749C9.15849 6.99476 9.11511 6.99832 9.07167 6.99812C8.88804 6.99794 8.7104 6.93505 8.57021 6.8206C8.43003 6.70614 8.33633 6.5475 8.30573 6.37278L7.97201 4.44673C7.32469 4.51593 6.67143 4.51593 6.02411 4.44673L5.69362 6.37465C5.66298 6.54959 5.5691 6.7084 5.42864 6.82288C5.28819 6.93736 5.11024 7.00011 4.92639 6.99999C4.88294 7.00019 4.83957 6.99663 4.79679 6.98936C4.69607 6.97299 4.59967 6.93764 4.51312 6.88531C4.42656 6.83299 4.35153 6.76472 4.29232 6.68441C4.23311 6.6041 4.19087 6.51331 4.16802 6.41725C4.14517 6.32118 4.14216 6.22171 4.15915 6.12452L4.50194 4.14094C3.81382 3.9357 3.15655 3.64431 2.54692 3.27421L1.45438 5.12397C1.40332 5.20954 1.3353 5.28457 1.25419 5.34477C1.17309 5.40497 1.08049 5.44916 0.981688 5.47483C0.882884 5.5005 0.779809 5.50713 0.678349 5.49436C0.576888 5.48158 0.479028 5.44964 0.390357 5.40037C0.301686 5.3511 0.22394 5.28545 0.161558 5.20719C0.0991752 5.12892 0.0533784 5.03956 0.0267821 4.94421C0.000185695 4.84886 -0.00668947 4.74939 0.00654922 4.65148C0.0197879 4.55357 0.0528812 4.45913 0.103939 4.37356L1.29756 2.36309C0.893005 2.01053 0.51794 1.62767 0.175868 1.21809C0.0551072 1.06266 0.00151443 0.868096 0.0263619 0.675314C0.0512095 0.482533 0.152561 0.306564 0.309098 0.184418C0.465636 0.0622714 0.665159 0.00346844 0.865703 0.0203773C1.06625 0.0372862 1.25218 0.128589 1.3844 0.275081C2.42379 1.51701 4.24209 2.99781 7 2.99781C9.75791 2.99781 11.5762 1.51701 12.6156 0.275081C12.7457 0.121737 12.9333 0.0242719 13.1376 0.0039561C13.3419 -0.0163597 13.5462 0.0421237 13.7059 0.166643C13.8657 0.291162 13.9679 0.471606 13.9903 0.668594C14.0127 0.865583 13.9534 1.06312 13.8254 1.21809C13.4829 1.62772 13.1074 2.01058 12.7024 2.36309L13.8961 4.37356Z" fill="currentColor"/>
  </symbol>


  <symbol id="caret-down"  width="12" height="8" viewBox="0 0 12 8" fill="none" xmlns="http://www.w3.org/2000/svg">
  <path d="M11 1L6 7L1 1" stroke="#202020" stroke-width="1.5" stroke-linecap="round" stroke-linejoin="round"/>
  </symbol>

  <symbol id="sortp"  width="24" height="24" viewBox="0 0 24 24" fill="none" xmlns="http://www.w3.org/2000/svg">
<path d="M10 14H2" stroke="#202020" stroke-width="1.5" stroke-linecap="round" stroke-linejoin="round"/>
  <path d="M8 10H2" stroke="#202020" stroke-width="1.5" stroke-linecap="round" stroke-linejoin="round"/>
  <path d="M6 6H2" stroke="#202020" stroke-width="1.5" stroke-linecap="round" stroke-linejoin="round"/>
  <path d="M12 18H2" stroke="#202020" stroke-width="1.5" stroke-linecap="round" stroke-linejoin="round"/>
  <path d="M19 20V4M19 20L22 17M19 20L16 17M19 4L22 7M19 4L16 7" stroke="#202020" stroke-width="1.5" stroke-linecap="round" stroke-linejoin="round"/>
  </symbol>


  <symbol id="info" width="24" height="24" viewBox="0 0 24 24" fill="none" xmlns="http://www.w3.org/2000/svg">
    <path d="M11.625 3C6.86203 3 3 6.86203 3 11.625C3 16.388 6.86203 20.25 11.625 20.25C16.388 20.25 20.25 16.388 20.25 11.625C20.25 6.86203 16.388 3 11.625 3Z" stroke="#202020" stroke-width="1.5" stroke-miterlimit="10"/>
    <path d="M10.3125 10.3125H11.8125V15.75" stroke="#202020" stroke-width="1.5" stroke-linecap="round" stroke-linejoin="round"/>
    <path d="M9.75 15.9375H13.875" stroke="#202020" stroke-width="1.5" stroke-miterlimit="10" stroke-linecap="round"/>
    <path d="M11.3646 6.92275C11.4417 6.87124 11.5323 6.84375 11.625 6.84375C11.7493 6.84375 11.8685 6.89314 11.9565 6.98104C12.0444 7.06895 12.0938 7.18818 12.0938 7.3125C12.0938 7.40521 12.0663 7.49584 12.0148 7.57292L12.6384 7.9896L12.0148 7.57292C11.9632 7.65001 11.89 7.71009 11.8044 7.74557C11.7187 7.78105 11.6245 7.79033 11.5336 7.77224C11.4426 7.75416 11.3591 7.70951 11.2935 7.64396C11.228 7.5784 11.1833 7.49488 11.1653 7.40395C11.1472 7.31302 11.1565 7.21877 11.1919 7.13312C11.2274 7.04746 11.2875 6.97426 11.3646 6.92275Z" fill="#202020" stroke="#202020" stroke-width="1.5"/>
  </symbol>
  <symbol id="orders" width="24" height="24" viewBox="0 0 24 24" fill="none"
    xmlns="http://www.w3.org/2000/svg">
    <path d="M20.25 3.75H3.75C3.35218 3.75 2.97064 3.90804 2.68934 4.18934C2.40804 4.47064 2.25 4.85218 2.25 5.25V18.75C2.25 19.1478 2.40804 19.5294 2.68934 19.8107C2.97064 20.092 3.35218 20.25 3.75 20.25H20.25C20.6478 20.25 21.0294 20.092 21.3107 19.8107C21.592 19.5294 21.75 19.1478 21.75 18.75V5.25C21.75 4.85218 21.592 4.47064 21.3107 4.18934C21.0294 3.90804 20.6478 3.75 20.25 3.75ZM20.25 5.25V6.75H3.75V5.25H20.25ZM20.25 18.75H3.75V8.25H20.25V18.75ZM16.5 10.5C16.5 11.6935 16.0259 12.8381 15.182 13.682C14.3381 14.5259 13.1935 15 12 15C10.8065 15 9.66193 14.5259 8.81802 13.682C7.97411 12.8381 7.5 11.6935 7.5 10.5C7.5 10.3011 7.57902 10.1103 7.71967 9.96967C7.86032 9.82902 8.05109 9.75 8.25 9.75C8.44891 9.75 8.63968 9.82902 8.78033 9.96967C8.92098 10.1103 9 10.3011 9 10.5C9 11.2956 9.31607 12.0587 9.87868 12.6213C10.4413 13.1839 11.2044 13.5 12 13.5C12.7956 13.5 13.5587 13.1839 14.1213 12.6213C14.6839 12.0587 15 11.2956 15 10.5C15 10.3011 15.079 10.1103 15.2197 9.96967C15.3603 9.82902 15.5511 9.75 15.75 9.75C15.9489 9.75 16.1397 9.82902 16.2803 9.96967C16.421 10.1103 16.5 10.3011 16.5 10.5Z" fill="currentColor"/>
  </symbol>
  <symbol id="sales" width="24" height="24" viewBox="0 0 24 24" fill="none"
    xmlns="http://www.w3.org/2000/svg">
    <path d="M22.8975 5.62499C22.7895 5.55761 22.6662 5.51881 22.5391 5.51225C22.412 5.50569 22.2853 5.53158 22.1709 5.58749C18.1462 7.55624 15.2719 6.63374 12.2334 5.66062C9.04594 4.63968 5.74125 3.58499 1.17563 5.81437C1.04806 5.87556 0.940404 5.97159 0.865091 6.09136C0.789777 6.21113 0.749878 6.34976 0.75 6.49124V17.7347C0.749982 17.8619 0.782343 17.9871 0.844035 18.0984C0.905728 18.2097 0.994725 18.3035 1.10265 18.3709C1.21058 18.4383 1.33388 18.4771 1.46096 18.4838C1.58804 18.4904 1.71471 18.4646 1.82906 18.4087C5.85375 16.44 8.72812 17.3625 11.7712 18.3356C13.575 18.9122 15.4125 19.5 17.49 19.5C19.0922 19.5 20.8397 19.1512 22.8253 18.1819C22.9514 18.1203 23.0577 18.0246 23.1322 17.9056C23.2066 17.7866 23.2461 17.6491 23.2463 17.5087V6.26531C23.2474 6.13772 23.2159 6.01196 23.1549 5.89992C23.0939 5.78787 23.0053 5.69325 22.8975 5.62499ZM21.75 17.0316C17.9438 18.735 15.1641 17.8462 12.2288 16.9078C10.425 16.3312 8.5875 15.7434 6.51 15.7434C5.05041 15.7505 3.60567 16.0369 2.25375 16.5872V6.96843C6.06 5.26499 8.83969 6.15374 11.775 7.09218C14.7103 8.03062 17.7319 8.99999 21.75 7.41468V17.0316ZM12 8.99999C11.4067 8.99999 10.8266 9.17594 10.3333 9.50559C9.83994 9.83523 9.45542 10.3038 9.22836 10.8519C9.0013 11.4001 8.94189 12.0033 9.05764 12.5853C9.1734 13.1672 9.45912 13.7018 9.87868 14.1213C10.2982 14.5409 10.8328 14.8266 11.4147 14.9424C11.9967 15.0581 12.5999 14.9987 13.1481 14.7716C13.6962 14.5446 14.1648 14.1601 14.4944 13.6667C14.8241 13.1734 15 12.5933 15 12C15 11.2043 14.6839 10.4413 14.1213 9.87867C13.5587 9.31606 12.7956 8.99999 12 8.99999ZM12 13.5C11.7033 13.5 11.4133 13.412 11.1666 13.2472C10.92 13.0824 10.7277 12.8481 10.6142 12.574C10.5006 12.2999 10.4709 11.9983 10.5288 11.7074C10.5867 11.4164 10.7296 11.1491 10.9393 10.9393C11.1491 10.7296 11.4164 10.5867 11.7074 10.5288C11.9983 10.4709 12.2999 10.5006 12.574 10.6142C12.8481 10.7277 13.0824 10.92 13.2472 11.1666C13.412 11.4133 13.5 11.7033 13.5 12C13.5 12.3978 13.342 12.7793 13.0607 13.0607C12.7794 13.342 12.3978 13.5 12 13.5ZM5.25 8.99999V13.5C5.25 13.6989 5.17098 13.8897 5.03033 14.0303C4.88968 14.171 4.69891 14.25 4.5 14.25C4.30109 14.25 4.11032 14.171 3.96967 14.0303C3.82902 13.8897 3.75 13.6989 3.75 13.5V8.99999C3.75 8.80108 3.82902 8.61032 3.96967 8.46966C4.11032 8.32901 4.30109 8.24999 4.5 8.24999C4.69891 8.24999 4.88968 8.32901 5.03033 8.46966C5.17098 8.61032 5.25 8.80108 5.25 8.99999ZM18.75 15V10.5C18.75 10.3011 18.829 10.1103 18.9697 9.96966C19.1103 9.82901 19.3011 9.74999 19.5 9.74999C19.6989 9.74999 19.8897 9.82901 20.0303 9.96966C20.171 10.1103 20.25 10.3011 20.25 10.5V15C20.25 15.1989 20.171 15.3897 20.0303 15.5303C19.8897 15.671 19.6989 15.75 19.5 15.75C19.3011 15.75 19.1103 15.671 18.9697 15.5303C18.829 15.3897 18.75 15.1989 18.75 15Z" fill="currentColor"/>
  </symbol>
  <symbol id="inventory" width="24" height="24" viewBox="0 0 24 24" fill="none"
    xmlns="http://www.w3.org/2000/svg">
    <path d="M17.25 3.75H6.75C5.35807 3.75149 4.02358 4.30509 3.03933 5.28933C2.05509 6.27358 1.50149 7.60807 1.5 9V18C1.5 18.3978 1.65804 18.7794 1.93934 19.0607C2.22064 19.342 2.60218 19.5 3 19.5H21C21.3978 19.5 21.7794 19.342 22.0607 19.0607C22.342 18.7794 22.5 18.3978 22.5 18V9C22.4985 7.60807 21.9449 6.27358 20.9607 5.28933C19.9764 4.30509 18.6419 3.75149 17.25 3.75ZM21 9V9.75H18V5.325C18.8465 5.49904 19.607 5.95959 20.1535 6.62903C20.7 7.29846 20.9989 8.13584 21 9ZM12.75 12.75H11.25V9.75H12.75V12.75ZM10.5 14.25H13.5C13.6989 14.25 13.8897 14.171 14.0303 14.0303C14.171 13.8897 14.25 13.6989 14.25 13.5V11.25H16.5V18H7.5V11.25H9.75V13.5C9.75 13.6989 9.82902 13.8897 9.96967 14.0303C10.1103 14.171 10.3011 14.25 10.5 14.25ZM14.25 9.75V9C14.25 8.80109 14.171 8.61032 14.0303 8.46967C13.8897 8.32902 13.6989 8.25 13.5 8.25H10.5C10.3011 8.25 10.1103 8.32902 9.96967 8.46967C9.82902 8.61032 9.75 8.80109 9.75 9V9.75H7.5V5.25H16.5V9.75H14.25ZM6 5.325V9.75H3V9C3.00106 8.13584 3.30002 7.29846 3.8465 6.62903C4.39297 5.95959 5.15354 5.49904 6 5.325ZM3 11.25H6V18H3V11.25ZM21 18H18V11.25H21V18Z" fill="currentColor"/>
  </symbol>
  <symbol id="settings" width="24" height="24" viewBox="0 0 24 24" fill="none"
    xmlns="http://www.w3.org/2000/svg">
    <path d="M12 7.5C11.11 7.5 10.24 7.76392 9.49993 8.25838C8.75991 8.75285 8.18313 9.45565 7.84254 10.2779C7.50194 11.1002 7.41283 12.005 7.58646 12.8779C7.7601 13.7508 8.18868 14.5526 8.81801 15.182C9.44735 15.8113 10.2492 16.2399 11.1221 16.4135C11.995 16.5872 12.8998 16.4981 13.7221 16.1575C14.5443 15.8169 15.2471 15.2401 15.7416 14.5001C16.2361 13.76 16.5 12.89 16.5 12C16.4988 10.8069 16.0243 9.66303 15.1806 8.81939C14.337 7.97574 13.1931 7.50124 12 7.5ZM12 15C11.4067 15 10.8266 14.8241 10.3333 14.4944C9.83994 14.1648 9.45542 13.6962 9.22836 13.148C9.00129 12.5999 8.94188 11.9967 9.05764 11.4147C9.17339 10.8328 9.45912 10.2982 9.87867 9.87868C10.2982 9.45912 10.8328 9.1734 11.4147 9.05764C11.9967 8.94189 12.5999 9.0013 13.148 9.22836C13.6962 9.45542 14.1648 9.83994 14.4944 10.3333C14.824 10.8266 15 11.4067 15 12C15 12.7956 14.6839 13.5587 14.1213 14.1213C13.5587 14.6839 12.7956 15 12 15ZM22.3069 10.0509C22.286 9.94532 22.2426 9.84544 22.1797 9.75809C22.1167 9.67073 22.0357 9.59795 21.9422 9.54468L19.1456 7.95093L19.1344 4.79906C19.134 4.69051 19.1101 4.58333 19.0643 4.48492C19.0185 4.38651 18.9519 4.29921 18.8691 4.22906C17.8546 3.37096 16.6864 2.71337 15.4266 2.29125C15.3273 2.25767 15.2222 2.24524 15.1179 2.25477C15.0136 2.26429 14.9124 2.29556 14.8209 2.34656L12 3.92343L9.17624 2.34375C9.0847 2.29246 8.98341 2.26096 8.87893 2.25127C8.77445 2.24158 8.6691 2.25392 8.56968 2.2875C7.31076 2.71271 6.14389 3.37281 5.13093 4.23281C5.04822 4.30286 4.98166 4.39 4.93586 4.48824C4.89006 4.58648 4.8661 4.69348 4.86562 4.80187L4.85156 7.95656L2.055 9.55031C1.96143 9.60357 1.88044 9.67636 1.81751 9.76371C1.75458 9.85107 1.7112 9.95095 1.69031 10.0566C1.43437 11.3427 1.43437 12.6667 1.69031 13.9528C1.7112 14.0584 1.75458 14.1583 1.81751 14.2457C1.88044 14.333 1.96143 14.4058 2.055 14.4591L4.85156 16.0528L4.86281 19.2047C4.86315 19.3132 4.88705 19.4204 4.93285 19.5188C4.97866 19.6172 5.04528 19.7045 5.12812 19.7747C6.14256 20.6328 7.31077 21.2904 8.57062 21.7125C8.66983 21.7461 8.77498 21.7585 8.87929 21.749C8.9836 21.7395 9.08476 21.7082 9.17624 21.6572L12 20.0766L14.8237 21.6562C14.9355 21.7185 15.0615 21.7508 15.1894 21.75C15.2713 21.75 15.3526 21.7367 15.4303 21.7106C16.6891 21.286 17.8559 20.6265 18.8691 19.7672C18.9518 19.6971 19.0183 19.61 19.0641 19.5118C19.1099 19.4135 19.1339 19.3065 19.1344 19.1981L19.1484 16.0434L21.945 14.4497C22.0386 14.3964 22.1196 14.3236 22.1825 14.2363C22.2454 14.1489 22.2888 14.049 22.3097 13.9434C22.5642 12.6583 22.5632 11.3357 22.3069 10.0509ZM20.9006 13.3237L18.2222 14.8472C18.1048 14.9139 18.0077 15.0111 17.9409 15.1284C17.8866 15.2222 17.8294 15.3216 17.7712 15.4153C17.6968 15.5335 17.6572 15.6703 17.6569 15.81L17.6428 18.8334C16.9229 19.3988 16.1208 19.8509 15.2644 20.1741L12.5625 18.6684C12.4503 18.6064 12.3241 18.5741 12.1959 18.5747H12.1781C12.0647 18.5747 11.9503 18.5747 11.8369 18.5747C11.7027 18.5713 11.5701 18.6037 11.4525 18.6684L8.74874 20.1778C7.89047 19.8571 7.0862 19.4072 6.36375 18.8437L6.35343 15.825C6.35297 15.685 6.31335 15.548 6.23906 15.4294C6.18093 15.3356 6.12375 15.2419 6.07031 15.1425C6.00405 15.0233 5.90689 14.9242 5.78906 14.8556L3.10781 13.3284C2.96906 12.4508 2.96906 11.5567 3.10781 10.6791L5.78156 9.15281C5.89891 9.08608 5.99608 8.98891 6.06281 8.87156C6.11718 8.77781 6.17437 8.67844 6.2325 8.58469C6.3069 8.46646 6.34653 8.32969 6.34687 8.19L6.36093 5.16656C7.08087 4.6012 7.88293 4.14911 8.73937 3.82593L11.4375 5.33156C11.5549 5.39665 11.6877 5.42903 11.8219 5.42531C11.9353 5.42531 12.0497 5.42531 12.1631 5.42531C12.2973 5.42866 12.4299 5.39631 12.5475 5.33156L15.2512 3.82218C16.1095 4.14288 16.9138 4.59275 17.6362 5.15625L17.6466 8.175C17.647 8.31496 17.6866 8.452 17.7609 8.57062C17.8191 8.66437 17.8762 8.75812 17.9297 8.8575C17.9959 8.97667 18.0931 9.07577 18.2109 9.14437L20.8922 10.6716C21.0328 11.5499 21.0344 12.4449 20.8969 13.3237H20.9006Z" fill="currentColor"/>
  </symbol>
  <symbol id='show' viewBox="0 0 24 24" fill="none" xmlns="http://www.w3.org/2000/svg">
		<path d="M1 12C1 12 5 4 12 4C19 4 23 12 23 12" stroke="#000000" stroke-width="2" stroke-linecap="round"
			stroke-linejoin="round" />
		<path d="M1 12C1 12 5 20 12 20C19 20 23 12 23 12" stroke="#000000" stroke-width="2" stroke-linecap="round"
			stroke-linejoin="round" />
		<circle cx="12" cy="12" r="3" stroke="#000000" stroke-width="2" stroke-linecap="round"
			stroke-linejoin="round" />
	</symbol>

	<symbol id='hide' viewBox="0 0 24 24" fill="none" xmlns="http://www.w3.org/2000/svg">
		<g id="SVGRepo_bgCarrier" stroke-width="0"></g>
		<g id="SVGRepo_tracerCarrier" stroke-linecap="round" stroke-linejoin="round"></g>
		<g id="SVGRepo_iconCarrier">
			<g id="Edit / Hide">
				<path id="Vector"
					d="M3.99989 4L19.9999 20M16.4999 16.7559C15.1473 17.4845 13.6185 17.9999 11.9999 17.9999C8.46924 17.9999 5.36624 15.5478 3.5868 13.7788C3.1171 13.3119 2.88229 13.0784 2.7328 12.6201C2.62619 12.2933 2.62616 11.7066 2.7328 11.3797C2.88233 10.9215 3.11763 10.6875 3.58827 10.2197C4.48515 9.32821 5.71801 8.26359 7.17219 7.42676M19.4999 14.6335C19.8329 14.3405 20.138 14.0523 20.4117 13.7803L20.4146 13.7772C20.8832 13.3114 21.1182 13.0779 21.2674 12.6206C21.374 12.2938 21.3738 11.7068 21.2672 11.38C21.1178 10.9219 20.8827 10.6877 20.4133 10.2211C18.6338 8.45208 15.5305 6 11.9999 6C11.6624 6 11.3288 6.02241 10.9999 6.06448M13.3228 13.5C12.9702 13.8112 12.5071 14 11.9999 14C10.8953 14 9.99989 13.1046 9.99989 12C9.99989 11.4605 10.2135 10.9711 10.5608 10.6113"
					stroke="#000000" stroke-width="2" stroke-linecap="round" stroke-linejoin="round"></path>
			</g>
		</g>
	</symbol>
  <symbol id='bank' width="40" height="40" viewBox="0 0 40 40" fill="none" xmlns="http://www.w3.org/2000/svg">
   <path d="M3.75 16.25H7.5V26.25H5C4.66848 26.25 4.35054 26.3817 4.11612 26.6161C3.8817 26.8506 3.75 27.1685 3.75 27.5C3.75 27.8315 3.8817 28.1495 4.11612 28.3839C4.35054 28.6183 4.66848 28.75 5 28.75H35C35.3315 28.75 35.6495 28.6183 35.8839 28.3839C36.1183 28.1495 36.25 27.8315 36.25 27.5C36.25 27.1685 36.1183 26.8506 35.8839 26.6161C35.6495 26.3817 35.3315 26.25 35 26.25H32.5V16.25H36.25C36.522 16.2497 36.7864 16.1608 37.0033 15.9966C37.2201 15.8324 37.3775 15.602 37.4515 15.3403C37.5256 15.0786 37.5122 14.7999 37.4135 14.5465C37.3149 14.293 37.1362 14.0787 36.9047 13.936L20.6547 3.93595C20.4578 3.81489 20.2312 3.75079 20 3.75079C19.7688 3.75079 19.5422 3.81489 19.3453 3.93595L3.09531 13.936C2.86379 14.0787 2.68514 14.293 2.58645 14.5465C2.48777 14.7999 2.47443 15.0786 2.54847 15.3403C2.62251 15.602 2.77989 15.8324 2.99672 15.9966C3.21356 16.1608 3.47802 16.2497 3.75 16.25ZM10 16.25H15V26.25H10V16.25ZM22.5 16.25V26.25H17.5V16.25H22.5ZM30 26.25H25V16.25H30V26.25ZM20 6.4672L31.8344 13.75H8.16562L20 6.4672ZM38.75 32.5C38.75 32.8315 38.6183 33.1495 38.3839 33.3839C38.1495 33.6183 37.8315 33.75 37.5 33.75H2.5C2.16848 33.75 1.85054 33.6183 1.61612 33.3839C1.3817 33.1495 1.25 32.8315 1.25 32.5C1.25 32.1685 1.3817 31.8506 1.61612 31.6161C1.85054 31.3817 2.16848 31.25 2.5 31.25H37.5C37.8315 31.25 38.1495 31.3817 38.3839 31.6161C38.6183 31.8506 38.75 32.1685 38.75 32.5Z" fill="#F45D2C"/>
  </symbol>
  <symbol id='camera' xmlns="http://www.w3.org/2000/svg" width="83" height="73" viewBox="0 0 83 73" fill="none"> 
   <path d="M72.75 9.875H61.9219L56.5977 1.89063C56.3124 1.46309 55.9261 1.11251 55.473 0.869944C55.0199 0.627376 54.514 0.500309 54 0.5H29C28.486 0.500309 27.9801 0.627376 27.527 0.869944C27.0739 1.11251 26.6876 1.46309 26.4023 1.89063L21.0742 9.875H10.25C7.7636 9.875 5.37903 10.8627 3.62087 12.6209C1.86272 14.379 0.875 16.7636 0.875 19.25V63C0.875 65.4864 1.86272 67.871 3.62087 69.6291C5.37903 71.3873 7.7636 72.375 10.25 72.375H72.75C75.2364 72.375 77.621 71.3873 79.3791 69.6291C81.1373 67.871 82.125 65.4864 82.125 63V19.25C82.125 16.7636 81.1373 14.379 79.3791 12.6209C77.621 10.8627 75.2364 9.875 72.75 9.875ZM55.5625 39.5625C55.5625 42.3438 54.7378 45.0626 53.1925 47.3752C51.6473 49.6878 49.4511 51.4902 46.8815 52.5546C44.3119 53.6189 41.4844 53.8974 38.7565 53.3548C36.0287 52.8122 33.523 51.4729 31.5563 49.5062C29.5896 47.5395 28.2503 45.0338 27.7077 42.306C27.1651 39.5781 27.4436 36.7506 28.5079 34.181C29.5723 31.6114 31.3747 29.4152 33.6873 27.87C35.9999 26.3248 38.7187 25.5 41.5 25.5C45.2296 25.5 48.8065 26.9816 51.4437 29.6188C54.0809 32.256 55.5625 35.8329 55.5625 39.5625Z" fill="#F45D2C"/>
  </symbol>
  <symbol id="close-icon" viewBox="0 0 12 12" fill="none" xmlns="http://www.w3.org/2000/svg">
        <path
            d="M9.45754 1.05754C9.86759 0.647487 10.5324 0.647487 10.9425 1.05754C11.3152 1.43031 11.3491 2.01364 11.0441 2.4247L10.9425 2.54246L2.54246 10.9425C2.13241 11.3525 1.46759 11.3525 1.05754 10.9425C0.684765 10.5697 0.650876 9.98636 0.955872 9.5753L1.05754 9.45754L9.45754 1.05754Z"
            fill="none" />
        <path
            d="M1.05754 1.05754C1.43031 0.684765 2.01364 0.650876 2.4247 0.955872L2.54246 1.05754L10.9425 9.45754C11.3525 9.86759 11.3525 10.5324 10.9425 10.9425C10.5697 11.3152 9.98636 11.3491 9.5753 11.0441L9.45754 10.9425L1.05754 2.54246C0.647487 2.13241 0.647487 1.46759 1.05754 1.05754Z"
            fill="currentColor" />
    </symbol>
        <symbol id="menu-icon" viewBox="0 0 23 20" fill="none" xmlns="http://www.w3.org/2000/svg">
        <path fill-rule="evenodd" clip-rule="evenodd"
            d="M16.2355 5.561H6.7622C6.24141 5.561 5.8197 5.211 5.8197 4.781C5.8197 4.351 6.24141 4 6.7622 4H16.2355C16.7551 4 17.178 4.351 17.178 4.781C17.178 5.211 16.7551 5.561 16.2355 5.561ZM16.2355 10.74H6.7622C6.24141 10.74 5.8197 10.39 5.8197 9.95998C5.8197 9.52998 6.24141 9.17898 6.7622 9.17898H16.2355C16.7551 9.17898 17.178 9.52998 17.178 9.95998C17.178 10.39 16.7551 10.74 16.2355 10.74ZM6.76219 15.31H16.2355C16.7176 15.27 17.0814 14.929 17.0814 14.53C17.0814 14.12 16.7176 13.78 16.2355 13.74H6.76219C6.39969 13.71 6.04927 13.85 5.85594 14.11C5.6626 14.36 5.6626 14.69 5.85594 14.95C6.04927 15.2 6.39969 15.35 6.76219 15.31Z"
            fill="currentColor" />
    </symbol>
        <symbol id="notification-icon" viewBox="0 0 18 20" fill="none" xmlns="http://www.w3.org/2000/svg">
        <path
            d="M17.7936 14.4944C17.2733 13.5981 16.4999 11.0622 16.4999 7.75C16.4999 5.76088 15.7097 3.85322 14.3032 2.4467C12.8967 1.04018 10.989 0.25 8.99989 0.25C7.01077 0.25 5.10311 1.04018 3.69659 2.4467C2.29007 3.85322 1.49989 5.76088 1.49989 7.75C1.49989 11.0631 0.725515 13.5981 0.205202 14.4944C0.072331 14.7222 0.0018909 14.9811 0.000985404 15.2449C7.99065e-05 15.5086 0.0687412 15.768 0.200045 15.9967C0.331349 16.2255 0.520652 16.4156 0.748864 16.5478C0.977075 16.6801 1.23613 16.7498 1.49989 16.75H5.32583C5.49886 17.5967 5.95904 18.3577 6.62852 18.9042C7.29799 19.4507 8.13568 19.7492 8.99989 19.7492C9.8641 19.7492 10.7018 19.4507 11.3713 18.9042C12.0407 18.3577 12.5009 17.5967 12.674 16.75H16.4999C16.7636 16.7496 17.0225 16.6798 17.2506 16.5475C17.4787 16.4151 17.6678 16.225 17.799 15.9963C17.9302 15.7676 17.9988 15.5083 17.9979 15.2446C17.9969 14.9809 17.9265 14.7222 17.7936 14.4944ZM8.99989 18.25C8.53472 18.2499 8.08103 18.1055 7.70126 17.8369C7.3215 17.5683 7.03432 17.1886 6.87927 16.75H11.1205C10.9655 17.1886 10.6783 17.5683 10.2985 17.8369C9.91875 18.1055 9.46506 18.2499 8.99989 18.25ZM1.49989 15.25C2.22177 14.0087 2.99989 11.1325 2.99989 7.75C2.99989 6.1587 3.63203 4.63258 4.75725 3.50736C5.88247 2.38214 7.40859 1.75 8.99989 1.75C10.5912 1.75 12.1173 2.38214 13.2425 3.50736C14.3678 4.63258 14.9999 6.1587 14.9999 7.75C14.9999 11.1297 15.7761 14.0059 16.4999 15.25H1.49989Z"
            fill="currentColor" />
    </symbol>
        <symbol id="logout2-icon" xmlns="http://www.w3.org/2000/svg" class="ionicon" viewBox="0 0 512 512">
        <path
            d="M304 336v40a40 40 0 01-40 40H104a40 40 0 01-40-40V136a40 40 0 0140-40h152c22.09 0 48 17.91 48 40v40M368 336l80-80-80-80M176 256h256"
            fill="none" stroke="currentColor" stroke-linecap="round" stroke-linejoin="round" stroke-width="32" />
    </symbol>
    <symbol id="ellipsis" viewBox="0 0 16 4" fill="none" xmlns="http://www.w3.org/2000/svg">
        <path
            d="M9.125 2C9.125 2.2225 9.05902 2.44001 8.9354 2.62502C8.81179 2.81002 8.63609 2.95422 8.43052 3.03936C8.22495 3.12451 7.99875 3.14679 7.78052 3.10338C7.56229 3.05998 7.36184 2.95283 7.20451 2.79549C7.04717 2.63816 6.94003 2.43771 6.89662 2.21948C6.85321 2.00125 6.87549 1.77505 6.96064 1.56948C7.04578 1.36391 7.18998 1.18821 7.37498 1.0646C7.55999 0.94098 7.7775 0.875 8 0.875C8.29837 0.875 8.58452 0.993526 8.7955 1.2045C9.00647 1.41548 9.125 1.70163 9.125 2ZM14.375 0.875C14.1525 0.875 13.935 0.94098 13.75 1.0646C13.565 1.18821 13.4208 1.36391 13.3356 1.56948C13.2505 1.77505 13.2282 2.00125 13.2716 2.21948C13.315 2.43771 13.4222 2.63816 13.5795 2.79549C13.7368 2.95283 13.9373 3.05998 14.1555 3.10338C14.3738 3.14679 14.6 3.12451 14.8055 3.03936C15.0111 2.95422 15.1868 2.81002 15.3104 2.62502C15.434 2.44001 15.5 2.2225 15.5 2C15.5 1.70163 15.3815 1.41548 15.1705 1.2045C14.9595 0.993526 14.6734 0.875 14.375 0.875ZM1.625 0.875C1.4025 0.875 1.18499 0.94098 0.999984 1.0646C0.814979 1.18821 0.670785 1.36391 0.585636 1.56948C0.500487 1.77505 0.478209 2.00125 0.521617 2.21948C0.565025 2.43771 0.672171 2.63816 0.829505 2.79549C0.986839 2.95283 1.1873 3.05998 1.40552 3.10338C1.62375 3.14679 1.84995 3.12451 2.05552 3.03936C2.26109 2.95422 2.43679 2.81002 2.5604 2.62502C2.68402 2.44001 2.75 2.2225 2.75 2C2.75 1.70163 2.63147 1.41548 2.4205 1.2045C2.20952 0.993526 1.92337 0.875 1.625 0.875Z"
            fill="currentColor" />
    </symbol>

  

    
    <symbol id="arrow_up" width="10" height="10" viewBox="0 0 10 10" fill="none" xmlns="http://www.w3.org/2000/svg">
     <path d="M9.50028 1V7.5C9.50028 7.63261 9.4476 7.75979 9.35383 7.85355C9.26006 7.94732 9.13289 8 9.00028 8C8.86767 8 8.74049 7.94732 8.64672 7.85355C8.55296 7.75979 8.50028 7.63261 8.50028 7.5V2.20687L1.35403 9.35375C1.26021 9.44757 1.13296 9.50028 1.00028 9.50028C0.867596 9.50028 0.740348 9.44757 0.646528 9.35375C0.552708 9.25993 0.5 9.13268 0.5 9C0.5 8.86732 0.552708 8.74007 0.646528 8.64625L7.7934 1.5H2.50028C2.36767 1.5 2.24049 1.44732 2.14672 1.35355C2.05296 1.25979 2.00028 1.13261 2.00028 1C2.00028 0.867392 2.05296 0.740215 2.14672 0.646447C2.24049 0.552679 2.36767 0.5 2.50028 0.5H9.00028C9.13289 0.5 9.26006 0.552679 9.35383 0.646447C9.4476 0.740215 9.50028 0.867392 9.50028 1Z" fill="currentColor"/>
    </symbol>


    <symbol id="settlement" width="23" height="19" viewBox="0 0 23 19" fill="none" xmlns="http://www.w3.org/2000/svg">
    <path d="M21.5934 11.2244C21.3144 11.0096 20.9895 10.8622 20.6442 10.7934C20.2988 10.7246 19.9422 10.7364 19.6022 10.8278L15.6797 11.7297C15.7709 11.3442 15.7738 10.943 15.6879 10.5563C15.6021 10.1695 15.4298 9.80721 15.1841 9.4965C14.9383 9.18579 14.6254 8.93474 14.2688 8.76216C13.9122 8.58958 13.5212 8.49996 13.125 8.5H8.43188C8.03775 8.49901 7.64733 8.57614 7.28319 8.72691C6.91904 8.87769 6.58838 9.09913 6.31031 9.37844L4.18969 11.5H1.5C1.10218 11.5 0.720644 11.658 0.43934 11.9393C0.158035 12.2206 0 12.6022 0 13L0 16.75C0 17.1478 0.158035 17.5294 0.43934 17.8107C0.720644 18.092 1.10218 18.25 1.5 18.25H11.25C11.3113 18.25 11.3724 18.2425 11.4319 18.2275L17.4319 16.7275C17.4701 16.7184 17.5075 16.7058 17.5434 16.69L21.1875 15.1394L21.2288 15.1206C21.579 14.9456 21.8789 14.6843 22.1002 14.3614C22.3215 14.0385 22.457 13.6645 22.4939 13.2747C22.5307 12.8849 22.4678 12.4922 22.3109 12.1335C22.154 11.7748 21.9084 11.4619 21.5972 11.2244H21.5934ZM1.5 13H3.75V16.75H1.5V13ZM20.5716 13.7697L17.0091 15.2866L11.1562 16.75H5.25V12.5603L7.37156 10.4397C7.51035 10.2998 7.67555 10.1889 7.85758 10.1134C8.03961 10.0379 8.23482 9.99937 8.43188 10H13.125C13.4234 10 13.7095 10.1185 13.9205 10.3295C14.1315 10.5405 14.25 10.8266 14.25 11.125C14.25 11.4234 14.1315 11.7095 13.9205 11.9205C13.7095 12.1315 13.4234 12.25 13.125 12.25H10.5C10.3011 12.25 10.1103 12.329 9.96967 12.4697C9.82902 12.6103 9.75 12.8011 9.75 13C9.75 13.1989 9.82902 13.3897 9.96967 13.5303C10.1103 13.671 10.3011 13.75 10.5 13.75H13.5C13.5565 13.7498 13.6127 13.7436 13.6678 13.7313L19.9491 12.2866L19.9781 12.2791C20.1699 12.2258 20.3745 12.2454 20.5527 12.334C20.7309 12.4226 20.87 12.5739 20.9433 12.7589C21.0167 12.9439 21.0189 13.1495 20.9498 13.3361C20.8806 13.5227 20.7449 13.6771 20.5687 13.7697H20.5716ZM15.375 7C15.5603 7.00021 15.7453 6.98516 15.9281 6.955C16.1338 7.56582 16.51 8.10499 17.0124 8.50876C17.5147 8.91253 18.1222 9.16401 18.763 9.23348C19.4037 9.30295 20.051 9.18749 20.6282 8.90077C21.2054 8.61404 21.6884 8.16803 22.0202 7.61547C22.352 7.06291 22.5186 6.42691 22.5004 5.78266C22.4821 5.1384 22.2798 4.51284 21.9173 3.97993C21.5548 3.44703 21.0473 3.02905 20.4548 2.77543C19.8623 2.52181 19.2096 2.44315 18.5737 2.54875C18.3757 1.96023 18.0192 1.43775 17.5434 1.03879C17.0676 0.639839 16.4909 0.379884 15.8769 0.287536C15.2629 0.195187 14.6353 0.274025 14.0631 0.515374C13.491 0.756723 12.9966 1.15123 12.6342 1.65547C12.2719 2.15971 12.0556 2.75414 12.0093 3.37335C11.963 3.99256 12.0885 4.61254 12.3718 5.16506C12.6552 5.71759 13.0854 6.18123 13.6153 6.50497C14.1452 6.82872 14.7541 7.00001 15.375 7ZM21 5.875C21 6.24584 20.89 6.60835 20.684 6.9167C20.478 7.22504 20.1851 7.46536 19.8425 7.60728C19.4999 7.74919 19.1229 7.78632 18.7592 7.71397C18.3955 7.64163 18.0614 7.46305 17.7992 7.20083C17.537 6.9386 17.3584 6.60451 17.286 6.2408C17.2137 5.87708 17.2508 5.50008 17.3927 5.15747C17.5346 4.81486 17.775 4.52202 18.0833 4.316C18.3916 4.10997 18.7542 4 19.125 4C19.6223 4 20.0992 4.19755 20.4508 4.54918C20.8025 4.90081 21 5.37772 21 5.875ZM15.375 1.75C15.784 1.75021 16.1818 1.88416 16.5076 2.13145C16.8334 2.37874 17.0695 2.72579 17.1797 3.11969C16.7956 3.38997 16.4721 3.73744 16.2299 4.13989C15.9878 4.54234 15.8323 4.9909 15.7734 5.45688C15.6425 5.48515 15.509 5.49961 15.375 5.5C14.8777 5.5 14.4008 5.30246 14.0492 4.95083C13.6975 4.5992 13.5 4.12228 13.5 3.625C13.5 3.12772 13.6975 2.65081 14.0492 2.29918C14.4008 1.94755 14.8777 1.75 15.375 1.75Z" fill="currentColor"/>
    </symbol>

    <svg id="analytics" width="20" height="18" viewBox="0 0 20 18" fill="none" xmlns="http://www.w3.org/2000/svg">
      <path d="M19.75 16.5C19.75 16.6989 19.671 16.8897 19.5303 17.0303C19.3897 17.171 19.1989 17.25 19 17.25H1C0.801088 17.25 0.610322 17.171 0.46967 17.0303C0.329018 16.8897 0.25 16.6989 0.25 16.5C0.25 16.3011 0.329018 16.1103 0.46967 15.9697C0.610322 15.829 0.801088 15.75 1 15.75H1.75V9.75C1.75 9.55109 1.82902 9.36032 1.96967 9.21967C2.11032 9.07902 2.30109 9 2.5 9H4.75C4.94891 9 5.13968 9.07902 5.28033 9.21967C5.42098 9.36032 5.5 9.55109 5.5 9.75V15.75H7V5.25C7 5.05109 7.07902 4.86032 7.21967 4.71967C7.36032 4.57902 7.55109 4.5 7.75 4.5H10.75C10.9489 4.5 11.1397 4.57902 11.2803 4.71967C11.421 4.86032 11.5 5.05109 11.5 5.25V15.75H13V0.75C13 0.551088 13.079 0.360322 13.2197 0.21967C13.3603 0.0790178 13.5511 0 13.75 0H17.5C17.6989 0 17.8897 0.0790178 18.0303 0.21967C18.171 0.360322 18.25 0.551088 18.25 0.75V15.75H19C19.1989 15.75 19.3897 15.829 19.5303 15.9697C19.671 16.1103 19.75 16.3011 19.75 16.5Z" fill="currentColor"/>
    </svg>




    <symbol  id="edit" width="20" height="20" viewBox="0 0 20 20" fill="none" xmlns="http://www.w3.org/2000/svg">
    <path d="M17.7594 5.73203L14.268 2.24141C14.1519 2.1253 14.0141 2.0332 13.8624 1.97037C13.7107 1.90753 13.5482 1.87519 13.384 1.87519C13.2198 1.87519 13.0572 1.90753 12.9056 1.97037C12.7539 2.0332 12.6161 2.1253 12.5 2.24141L2.86641 11.875C2.74983 11.9907 2.65741 12.1283 2.59451 12.28C2.5316 12.4317 2.49948 12.5944 2.50001 12.7586V16.25C2.50001 16.5815 2.6317 16.8995 2.86612 17.1339C3.10054 17.3683 3.41849 17.5 3.75001 17.5H16.875C17.0408 17.5 17.1997 17.4342 17.3169 17.3169C17.4342 17.1997 17.5 17.0408 17.5 16.875C17.5 16.7092 17.4342 16.5503 17.3169 16.4331C17.1997 16.3159 17.0408 16.25 16.875 16.25H9.00938L17.7594 7.5C17.8755 7.38392 17.9676 7.24611 18.0304 7.09444C18.0933 6.94276 18.1256 6.78019 18.1256 6.61602C18.1256 6.45184 18.0933 6.28927 18.0304 6.1376C17.9676 5.98592 17.8755 5.84811 17.7594 5.73203ZM7.24141 16.25H3.75001V12.7586L10.625 5.8836L14.1164 9.375L7.24141 16.25ZM15 8.49141L11.5094 5L13.3844 3.125L16.875 6.61641L15 8.49141Z" fill="#202020"/>
    </symbol>

    <symbol id="arrowUp" width="10" height="10" viewBox="0 0 10 10" fill="none" xmlns="http://www.w3.org/2000/svg">
    <path d="M9.50028 1V7.5C9.50028 7.63261 9.4476 7.75979 9.35383 7.85355C9.26006 7.94732 9.13289 8 9.00028 8C8.86767 8 8.74049 7.94732 8.64672 7.85355C8.55296 7.75979 8.50028 7.63261 8.50028 7.5V2.20687L1.35403 9.35375C1.26021 9.44757 1.13296 9.50028 1.00028 9.50028C0.867596 9.50028 0.740348 9.44757 0.646528 9.35375C0.552708 9.25993 0.5 9.13268 0.5 9C0.5 8.86732 0.552708 8.74007 0.646528 8.64625L7.7934 1.5H2.50028C2.36767 1.5 2.24049 1.44732 2.14672 1.35355C2.05296 1.25979 2.00028 1.13261 2.00028 1C2.00028 0.867392 2.05296 0.740215 2.14672 0.646447C2.24049 0.552679 2.36767 0.5 2.50028 0.5H9.00028C9.13289 0.5 9.26006 0.552679 9.35383 0.646447C9.4476 0.740215 9.50028 0.867392 9.50028 1Z" fill="currentColor"/>
    </symbol>


    <symbol id="close" width="20" height="20" viewBox="0 0 20 20" fill="none" xmlns="http://www.w3.org/2000/svg">
    <path d="M12.9422 7.94219L10.8836 10L12.9422 12.0578C13.0003 12.1159 13.0463 12.1848 13.0777 12.2607C13.1092 12.3366 13.1254 12.4179 13.1254 12.5C13.1254 12.5821 13.1092 12.6634 13.0777 12.7393C13.0463 12.8152 13.0003 12.8841 12.9422 12.9422C12.8841 13.0003 12.8152 13.0463 12.7393 13.0777C12.6634 13.1092 12.5821 13.1253 12.5 13.1253C12.4179 13.1253 12.3366 13.1092 12.2607 13.0777C12.1848 13.0463 12.1159 13.0003 12.0578 12.9422L10 10.8836L7.94219 12.9422C7.88412 13.0003 7.81518 13.0463 7.73931 13.0777C7.66344 13.1092 7.58213 13.1253 7.5 13.1253C7.41788 13.1253 7.33656 13.1092 7.26069 13.0777C7.18482 13.0463 7.11588 13.0003 7.05782 12.9422C6.99975 12.8841 6.95368 12.8152 6.92226 12.7393C6.89083 12.6634 6.87466 12.5821 6.87466 12.5C6.87466 12.4179 6.89083 12.3366 6.92226 12.2607C6.95368 12.1848 6.99975 12.1159 7.05782 12.0578L9.11641 10L7.05782 7.94219C6.94054 7.82491 6.87466 7.66585 6.87466 7.5C6.87466 7.33415 6.94054 7.17509 7.05782 7.05781C7.17509 6.94054 7.33415 6.87465 7.5 6.87465C7.66586 6.87465 7.82492 6.94054 7.94219 7.05781L10 9.11641L12.0578 7.05781C12.1159 6.99974 12.1848 6.95368 12.2607 6.92225C12.3366 6.89083 12.4179 6.87465 12.5 6.87465C12.5821 6.87465 12.6634 6.89083 12.7393 6.92225C12.8152 6.95368 12.8841 6.99974 12.9422 7.05781C13.0003 7.11588 13.0463 7.18482 13.0777 7.26069C13.1092 7.33656 13.1254 7.41788 13.1254 7.5C13.1254 7.58212 13.1092 7.66344 13.0777 7.73931C13.0463 7.81518 13.0003 7.88412 12.9422 7.94219ZM18.125 10C18.125 11.607 17.6485 13.1779 16.7557 14.514C15.8629 15.8502 14.594 16.8916 13.1093 17.5065C11.6247 18.1215 9.99099 18.2824 8.4149 17.9689C6.8388 17.6554 5.39106 16.8815 4.25476 15.7452C3.11846 14.6089 2.34463 13.1612 2.03112 11.5851C1.71762 10.009 1.87852 8.37535 2.49348 6.8907C3.10844 5.40605 4.14985 4.1371 5.486 3.24431C6.82214 2.35152 8.39303 1.875 10 1.875C12.1542 1.87727 14.2195 2.73403 15.7427 4.25727C17.266 5.78051 18.1227 7.84581 18.125 10ZM16.875 10C16.875 8.64025 16.4718 7.31104 15.7164 6.18045C14.9609 5.04987 13.8872 4.16868 12.631 3.64833C11.3747 3.12798 9.99238 2.99183 8.65876 3.2571C7.32514 3.52237 6.10013 4.17716 5.13864 5.13864C4.17716 6.10013 3.52238 7.32513 3.2571 8.65875C2.99183 9.99237 3.12798 11.3747 3.64833 12.6309C4.16868 13.8872 5.04987 14.9609 6.18046 15.7164C7.31105 16.4718 8.64026 16.875 10 16.875C11.8227 16.8729 13.5702 16.1479 14.8591 14.8591C16.1479 13.5702 16.8729 11.8227 16.875 10Z" fill="currentColor"/>
    </symbol>

    <symbol id="instagram" width="24" height="24" viewBox="0 0 24 24" fill="none" xmlns="http://www.w3.org/2000/svg">
    <path d="M16.3748 3.24984C17.5342 3.25331 18.6451 3.71539 19.4648 4.53517C20.2846 5.35495 20.7467 6.46582 20.7502 7.62516V16.3748C20.7467 17.5342 20.2846 18.6451 19.4648 19.4648C18.6451 20.2846 17.5342 20.7467 16.3748 20.7502H7.62516C6.46582 20.7467 5.35495 20.2846 4.53517 19.4648C3.71539 18.6451 3.25331 17.5342 3.24984 16.3748V7.62516C3.25331 6.46582 3.71539 5.35495 4.53517 4.53517C5.35495 3.71539 6.46582 3.25331 7.62516 3.24984H16.3748ZM16.3748 1.5H7.62516C4.25625 1.5 1.5 4.25625 1.5 7.62516V16.3748C1.5 19.7437 4.25625 22.5 7.62516 22.5H16.3748C19.7437 22.5 22.5 19.7437 22.5 16.3748V7.62516C22.5 4.25625 19.7437 1.5 16.3748 1.5Z" fill="#7A7978"/>
    <path d="M17.6873 7.62515C17.4278 7.62515 17.174 7.54818 16.9582 7.40396C16.7423 7.25974 16.5741 7.05475 16.4748 6.81492C16.3754 6.5751 16.3494 6.3112 16.4001 6.0566C16.4507 5.802 16.5757 5.56813 16.7593 5.38458C16.9428 5.20102 17.1767 5.07602 17.4313 5.02537C17.6859 4.97473 17.9498 5.00072 18.1896 5.10006C18.4294 5.1994 18.6344 5.36763 18.7786 5.58347C18.9229 5.79931 18.9998 6.05306 18.9998 6.31265C19.0002 6.48512 18.9665 6.65596 18.9007 6.81536C18.8349 6.97477 18.7382 7.11961 18.6163 7.24156C18.4943 7.36351 18.3495 7.46017 18.1901 7.526C18.0306 7.59183 17.8598 7.62552 17.6873 7.62515ZM12 8.49984C12.6923 8.49984 13.369 8.70512 13.9446 9.08972C14.5202 9.47433 14.9688 10.021 15.2337 10.6605C15.4986 11.3001 15.568 12.0039 15.4329 12.6828C15.2978 13.3618 14.9645 13.9855 14.475 14.475C13.9855 14.9645 13.3618 15.2978 12.6828 15.4329C12.0039 15.568 11.3001 15.4986 10.6606 15.2337C10.021 14.9688 9.47433 14.5202 9.08973 13.9446C8.70513 13.369 8.49985 12.6923 8.49985 12C8.50084 11.072 8.86992 10.1823 9.52611 9.52611C10.1823 8.86992 11.072 8.50083 12 8.49984ZM12 6.75C10.9617 6.75 9.94662 7.0579 9.08326 7.63478C8.2199 8.21166 7.54699 9.0316 7.14963 9.99091C6.75227 10.9502 6.64831 12.0058 6.85088 13.0242C7.05345 14.0426 7.55347 14.9781 8.28769 15.7123C9.02192 16.4465 9.95738 16.9465 10.9758 17.1491C11.9942 17.3517 13.0498 17.2477 14.0091 16.8504C14.9684 16.453 15.7883 15.7801 16.3652 14.9167C16.9421 14.0534 17.25 13.0383 17.25 12C17.25 10.6076 16.6969 9.27225 15.7123 8.28769C14.7277 7.30312 13.3924 6.75 12 6.75Z" fill="#7A7978"/>
    </symbol>

    <symbol id="x"  width="24" height="24" viewBox="0 0 24 24" fill="none" xmlns="http://www.w3.org/2000/svg">
    <path d="M16.8201 20.7684L3.75347 3.96836C3.44694 3.57425 3.72779 3 4.22708 3H6.70686C6.89201 3 7.06679 3.08548 7.18046 3.23164L20.2471 20.0316C20.5537 20.4258 20.2728 21 19.7735 21H17.2938C17.1086 21 16.9338 20.9145 16.8201 20.7684Z" stroke="#7A7978" stroke-width="1.5"/>
    <path d="M20 3L4 21" stroke="#7A7978" stroke-width="1.5" stroke-linecap="round"/>
    </symbol>

    <symbol id="fb" width="24" height="24" viewBox="0 0 24 24" fill="none" xmlns="http://www.w3.org/2000/svg">
    <path fill-rule="evenodd" clip-rule="evenodd" d="M22.5 12.0633C22.5 6.26486 17.7984 1.56329 12 1.56329C6.20156 1.56329 1.5 6.26486 1.5 12.0633C1.5 17.3039 5.33906 21.6478 10.3594 22.4363V15.0994H7.69266V12.0633H10.3594V9.75001C10.3594 7.11892 11.9273 5.66439 14.3255 5.66439C15.4744 5.66439 16.6763 5.8697 16.6763 5.8697V8.45392H15.3516C14.048 8.45392 13.6402 9.26298 13.6402 10.0945V12.0633H16.552L16.087 15.0994H13.6406V22.4372C18.6609 21.6492 22.5 17.3053 22.5 12.0633Z" fill="#7A7978"/>
    </symbol>

    <symbol id='ellipsis' width="16" height="4" viewBox="0 0 16 4" fill="none" xmlns="http://www.w3.org/2000/svg">
      <path d="M9.5 2C9.5 2.29667 9.41203 2.58668 9.2472 2.83336C9.08238 3.08003 8.84812 3.27229 8.57403 3.38582C8.29994 3.49935 7.99834 3.52906 7.70737 3.47118C7.41639 3.4133 7.14912 3.27044 6.93934 3.06066C6.72956 2.85088 6.5867 2.58361 6.52882 2.29264C6.47094 2.00166 6.50065 1.70006 6.61418 1.42598C6.72771 1.15189 6.91997 0.917618 7.16665 0.752796C7.41332 0.587974 7.70333 0.5 8 0.5C8.39783 0.5 8.77936 0.658036 9.06066 0.93934C9.34196 1.22064 9.5 1.60218 9.5 2ZM1.625 0.5C1.32833 0.5 1.03832 0.587974 0.791646 0.752796C0.544972 0.917618 0.352713 1.15189 0.239181 1.42598C0.12565 1.70006 0.0959449 2.00166 0.153823 2.29264C0.211701 2.58361 0.354562 2.85088 0.564341 3.06066C0.774119 3.27044 1.04139 3.4133 1.33237 3.47118C1.62334 3.52906 1.92494 3.49935 2.19903 3.38582C2.47311 3.27229 2.70738 3.08003 2.87221 2.83336C3.03703 2.58668 3.125 2.29667 3.125 2C3.125 1.60218 2.96697 1.22064 2.68566 0.93934C2.40436 0.658036 2.02283 0.5 1.625 0.5ZM14.375 0.5C14.0783 0.5 13.7883 0.587974 13.5416 0.752796C13.295 0.917618 13.1027 1.15189 12.9892 1.42598C12.8757 1.70006 12.8459 2.00166 12.9038 2.29264C12.9617 2.58361 13.1046 2.85088 13.3143 3.06066C13.5241 3.27044 13.7914 3.4133 14.0824 3.47118C14.3733 3.52906 14.6749 3.49935 14.949 3.38582C15.2231 3.27229 15.4574 3.08003 15.6222 2.83336C15.787 2.58668 15.875 2.29667 15.875 2C15.875 1.60218 15.717 1.22064 15.4357 0.93934C15.1544 0.658036 14.7728 0.5 14.375 0.5Z" fill="#202020"/>
    </symbol>
    <symbol id="picture" width="52" height="44" viewBox="0 0 52 44" fill="none" xmlns="http://www.w3.org/2000/svg">
    <path d="M48 0H4C2.93913 0 1.92172 0.421427 1.17157 1.17157C0.421427 1.92172 0 2.93913 0 4V40C0 41.0609 0.421427 42.0783 1.17157 42.8284C1.92172 43.5786 2.93913 44 4 44H48C49.0609 44 50.0783 43.5786 50.8284 42.8284C51.5786 42.0783 52 41.0609 52 40V4C52 2.93913 51.5786 1.92172 50.8284 1.17157C50.0783 0.421427 49.0609 0 48 0ZM48 4V29.6875L41.4825 23.1725C41.1111 22.801 40.6701 22.5062 40.1847 22.3052C39.6993 22.1041 39.1791 22.0006 38.6538 22.0006C38.1284 22.0006 37.6082 22.1041 37.1228 22.3052C36.6374 22.5062 36.1964 22.801 35.825 23.1725L30.825 28.1725L19.825 17.1725C19.0749 16.4229 18.0579 16.0019 16.9975 16.0019C15.9371 16.0019 14.9201 16.4229 14.17 17.1725L4 27.3425V4H48ZM4 33L17 20L37 40H4V33ZM48 40H42.6575L33.6575 31L38.6575 26L48 35.345V40ZM30 15C30 14.4067 30.1759 13.8266 30.5056 13.3333C30.8352 12.8399 31.3038 12.4554 31.852 12.2284C32.4001 12.0013 33.0033 11.9419 33.5853 12.0576C34.1672 12.1734 34.7018 12.4591 35.1213 12.8787C35.5409 13.2982 35.8266 13.8328 35.9424 14.4147C36.0581 14.9967 35.9987 15.5999 35.7716 16.1481C35.5446 16.6962 35.1601 17.1648 34.6667 17.4944C34.1734 17.8241 33.5933 18 33 18C32.2043 18 31.4413 17.6839 30.8787 17.1213C30.3161 16.5587 30 15.7956 30 15Z" fill="#7A7978"/>
    </symbol>

							<symbol
                id="modal-x"
								width='24'
								height='24'
								viewBox='0 0 24 24'
								fill='none'
								xmlns='http://www.w3.org/2000/svg'
							>
								<path
									d='M12 0C9.62663 0 7.30655 0.703788 5.33316 2.02236C3.35977 3.34094 1.8217 5.21508 0.913451 7.4078C0.00519941 9.60051 -0.232441 12.0133 0.230582 14.3411C0.693605 16.6689 1.83649 18.807 3.51472 20.4853C5.19295 22.1635 7.33115 23.3064 9.65892 23.7694C11.9867 24.2324 14.3995 23.9948 16.5922 23.0865C18.7849 22.1783 20.6591 20.6402 21.9776 18.6668C23.2962 16.6934 24 14.3734 24 12C23.9966 8.81843 22.7313 5.76814 20.4816 3.51843C18.2319 1.26872 15.1816 0.00335979 12 0ZM16.3454 15.0392C16.4312 15.125 16.4992 15.2268 16.5456 15.3389C16.592 15.4509 16.6159 15.571 16.6159 15.6923C16.6159 15.8136 16.592 15.9337 16.5456 16.0457C16.4992 16.1578 16.4312 16.2596 16.3454 16.3454C16.2596 16.4311 16.1578 16.4992 16.0458 16.5456C15.9337 16.592 15.8136 16.6159 15.6923 16.6159C15.571 16.6159 15.4509 16.592 15.3389 16.5456C15.2268 16.4992 15.125 16.4311 15.0392 16.3454L12 13.305L8.96077 16.3454C8.87501 16.4311 8.77319 16.4992 8.66114 16.5456C8.54908 16.592 8.42898 16.6159 8.3077 16.6159C8.18641 16.6159 8.06631 16.592 7.95425 16.5456C7.8422 16.4992 7.74038 16.4311 7.65462 16.3454C7.56886 16.2596 7.50082 16.1578 7.45441 16.0457C7.408 15.9337 7.38411 15.8136 7.38411 15.6923C7.38411 15.571 7.408 15.4509 7.45441 15.3389C7.50082 15.2268 7.56886 15.125 7.65462 15.0392L10.695 12L7.65462 8.96077C7.48141 8.78756 7.38411 8.55264 7.38411 8.30769C7.38411 8.06274 7.48141 7.82782 7.65462 7.65461C7.82783 7.48141 8.06275 7.3841 8.3077 7.3841C8.55265 7.3841 8.78757 7.48141 8.96077 7.65461L12 10.695L15.0392 7.65461C15.125 7.56885 15.2268 7.50082 15.3389 7.4544C15.4509 7.40799 15.571 7.3841 15.6923 7.3841C15.8136 7.3841 15.9337 7.40799 16.0458 7.4544C16.1578 7.50082 16.2596 7.56885 16.3454 7.65461C16.4312 7.74038 16.4992 7.84219 16.5456 7.95425C16.592 8.0663 16.6159 8.1864 16.6159 8.30769C16.6159 8.42898 16.592 8.54908 16.5456 8.66113C16.4992 8.77319 16.4312 8.875 16.3454 8.96077L13.305 12L16.3454 15.0392Z'
									fill='#202020'
								/>
							</symbol>




 

</svg>
