<svg width="997" height="864" viewBox="0 0 997 864" fill="none"
	xmlns="http://www.w3.org/2000/svg">
	<path d="M1131.05 459.781C1130.21 442.473 1125.31 425.686 1116.87 410.829C1103.28 384.479 1080.6 367.87 1054.65 365.281C1022.46 362.238 989.985 380.113 958.219 418.73C948.502 430.969 939.69 443.797 931.597 457.314C922.449 472.725 914.206 488.723 906.675 504.936C877.195 565.717 849.811 615.758 813.907 613.652C792.694 612.329 767.228 604.675 759.458 555.122C743.469 454.46 819.885 284.769 928.212 237.58C957.18 224.969 987.407 223.316 1013.71 232.8C1027.57 237.755 1041.81 245.983 1051.77 284.983C1057.81 308.591 1081.77 322.583 1105.45 315.963C1128.95 309.444 1143.24 284.999 1137.11 261.204C1121.91 201.998 1092.6 166.185 1044.9 149.003C997.664 131.805 944.179 134.205 894.538 155.764C824.554 186.209 762.233 250.542 718.859 336.993C679.19 416.031 661.835 503.355 672.43 570.338C685.062 649.778 734.06 697.825 807.237 702.134L812.479 702.289C907.191 704.384 954.405 607.085 985.712 542.431C993.116 527.128 1000.15 512.504 1006.19 503.105C1012.07 493.188 1018.48 483.586 1025.65 474.53C1030.28 468.656 1035.57 463.142 1041.3 458.231C1042.03 459.873 1042.58 461.616 1042.98 463.316C1046.62 603.694 1000.63 736.1 913.151 836.299C855.854 901.984 791.568 937.618 716.842 945.793C657.278 951.735 597.563 942.156 543.372 917.813C347.492 830.828 302.346 593.804 292.018 495.949C281.494 394.719 285.025 292.818 302.364 201.542C306.937 177.334 291.375 154.337 267.519 150.009C243.617 145.825 220.557 161.95 215.843 186.116C196.939 285.923 192.938 396.842 204.495 506.753C215.573 613.203 244.651 711.798 288.537 791.788C341.718 889.416 415.082 959.159 506.676 999.797C558.583 1022.98 614.57 1035.54 671.514 1037.03C689.125 1037.42 706.953 1036.62 724.624 1034.83C821.356 1024.42 907.077 977.39 978.928 894.918C1081.38 777.585 1135.38 622.948 1131.19 459.824L1131.05 459.781Z" fill="#F05E36"/>
	<path d="M380.38 567.464L466.711 551.23C460.284 511.729 456.047 471.632 453.964 431.556C447.855 317.342 455.233 147.161 525.116 -15.6387C534.729 -38.1991 524.725 -64.1627 502.626 -73.5005C480.528 -82.8383 454.719 -72.2358 445.106 -49.6753C368.222 129.243 360.097 314.286 366.637 438.06C368.914 481.495 373.574 524.706 380.477 567.651L380.38 567.464Z" fill="#F05E36"/>
	<path d="M620.162 535.739C614.938 479.968 613.82 423.868 616.437 367.639C622.006 246.641 648.5 74.943 742.573 -56.8653C756.743 -76.776 752.663 -104.398 733.191 -118.604C713.814 -132.625 686.509 -127.992 672.154 -107.98C565.097 41.8981 535.389 231.945 529.169 364.999C526.337 425.405 527.662 485.81 533.138 545.741L619.924 535.511L620.162 535.739Z" fill="#F05E36"/>
</svg>
